<?xml version="1.0" standalone="no"?><!DOCTYPE svg PUBLIC "-//W3C//DTD SVG 1.1//EN" "http://www.w3.org/Graphics/SVG/1.1/DTD/svg11.dtd"><svg t="1700531242903" class="icon" viewBox="0 0 1027 1024" version="1.1" xmlns="http://www.w3.org/2000/svg" p-id="4238" xmlns:xlink="http://www.w3.org/1999/xlink" width="200.5859375" height="200"><path d="M984.064 461.824q20.48-12.288 31.232-9.728t10.752 16.896l0 318.464q0 36.864-8.704 58.88t-23.552 32.768-34.816 13.824-43.52 3.072l-45.056 0q-33.792 0-81.408-0.512t-105.984-0.512l-119.808 0-120.832 0-110.592 0-90.112 0-57.344 0q-36.864 0-60.416-9.728t-36.864-25.088-18.432-35.328-5.12-41.472l0-304.128q0-20.48 10.24-26.112t25.6 4.608q4.096 3.072 18.432 12.288t33.28 20.992 40.448 25.088 39.936 24.576 31.744 19.968 17.408 10.752q13.312 8.192 12.288 17.92t-6.144 17.92q-4.096 8.192-12.288 25.6t-17.408 36.352-17.408 35.84-12.288 24.064q-5.12 8.192-3.584 13.824t5.632 8.704 10.24 1.536 11.264-7.68q3.072-3.072 15.872-17.92t28.16-32.256 29.184-32.256 17.92-18.944q5.12-5.12 15.872-11.776t22.016-1.536q6.144 4.096 20.992 13.824t32.768 20.992 35.84 23.04 30.208 18.944q12.288 8.192 26.112 10.24t26.112 1.024 22.528-4.608 15.36-6.656q6.144-3.072 23.552-13.312t37.888-23.04 38.4-24.064 25.088-15.36q11.264-6.144 19.456-3.584t17.408 10.752q4.096 3.072 16.384 18.432t27.136 33.28 27.648 34.304 17.92 22.528q6.144 7.168 12.8 7.68t11.264-3.072 6.144-10.24-3.584-14.848q-2.048-4.096-8.192-19.968t-13.824-35.328-15.872-37.888-12.288-26.624q-8.192-15.36-8.704-24.576t10.752-16.384q3.072-2.048 25.6-16.384t50.176-32.256 53.76-33.792 35.328-22.016zM544.768 637.952q-5.12 1.024-17.408-5.12t-27.648-15.36q-54.272-29.696-108.544-61.44-47.104-26.624-100.864-57.856t-99.84-57.856l0-184.32 2.048 0 0-1.024q0-26.624 10.24-49.664t27.648-40.448 40.448-27.648 49.664-10.24l448.512 0q26.624 0 50.176 10.24t40.96 27.648 27.648 40.448 10.24 49.664l0 1.024 2.048 0 0 184.32q-47.104 26.624-100.864 57.856t-100.864 57.856q-55.296 31.744-108.544 62.464-9.216 5.12-24.064 12.288t-20.992 7.168zM385.024 319.488l320.512 0 0-64.512-320.512 0 0 64.512zM385.024 447.488l320.512 0 0-64.512-320.512 0 0 64.512z" p-id="4239"></path></svg>