<?xml version="1.0" standalone="no"?><!DOCTYPE svg PUBLIC "-//W3C//DTD SVG 1.1//EN" "http://www.w3.org/Graphics/SVG/1.1/DTD/svg11.dtd"><svg t="1691394989170" class="icon" viewBox="0 0 1170 1024" version="1.1" xmlns="http://www.w3.org/2000/svg" p-id="8595" xmlns:xlink="http://www.w3.org/1999/xlink" width="228.515625" height="200"><path d="M585.142857 365.714286m-36.571428 0a36.571429 36.571429 0 1 0 73.142857 0 36.571429 36.571429 0 1 0-73.142857 0Z" fill="#54C3F1" p-id="8596"></path><path d="M731.428571 365.714286m-36.571428 0a36.571429 36.571429 0 1 0 73.142857 0 36.571429 36.571429 0 1 0-73.142857 0Z" fill="#54C3F1" p-id="8597"></path><path d="M438.857143 365.714286m-36.571429 0a36.571429 36.571429 0 1 0 73.142857 0 36.571429 36.571429 0 1 0-73.142857 0Z" fill="#54C3F1" p-id="8598"></path><path d="M1060.571429 877.714286H109.714286a109.714286 109.714286 0 0 1-109.714286-109.714286V109.714286a109.714286 109.714286 0 0 1 109.714286-109.714286h950.857143a109.714286 109.714286 0 0 1 109.714285 109.714286v658.285714a109.714286 109.714286 0 0 1-109.714285 109.714286zM109.714286 73.142857a36.571429 36.571429 0 0 0-36.571429 36.571429v658.285714a36.571429 36.571429 0 0 0 36.571429 36.571429h950.857143a36.571429 36.571429 0 0 0 36.571428-36.571429V109.714286a36.571429 36.571429 0 0 0-36.571428-36.571429z" fill="#54C3F1" p-id="8599"></path><path d="M36.571429 658.285714h1097.142857v73.142857H36.571429zM402.285714 841.142857h73.142857v146.285714h-73.142857zM694.857143 841.142857h73.142857v146.285714h-73.142857z" fill="#54C3F1" p-id="8600"></path><path d="M292.571429 950.857143h585.142857v73.142857H292.571429z" fill="#54C3F1" p-id="8601"></path></svg>