<?xml version="1.0" standalone="no"?><!DOCTYPE svg PUBLIC "-//W3C//DTD SVG 1.1//EN" "http://www.w3.org/Graphics/SVG/1.1/DTD/svg11.dtd"><svg t="1691394871411" class="icon" viewBox="0 0 1024 1024" version="1.1" xmlns="http://www.w3.org/2000/svg" p-id="2379" width="200" height="200" xmlns:xlink="http://www.w3.org/1999/xlink"><path d="M480 544H368v-64h112V368h64v288h-64V544z m368 304V592h64v320H592v-64h256zM656 656v144h-64V592h208v64H656zM176 176v192h192V176H176z m-64-64h320v320H112V112z m544 64v192h192V176H656z m-64-64h320v320H592V112zM112 480h160v64H112v-64z m640 0h160v64H752v-64zM544 112v160h-64V112h64z m0 640v160h-64V752h64z m-368-96v192h192V656H176z m-64-64h320v320H112V592z m112-368h96v96h-96v-96z m0 480h96v96h-96v-96z m480-480h96v96h-96v-96z" fill="#5090F1" p-id="2380"></path></svg>