<?xml version="1.0" standalone="no"?><!DOCTYPE svg PUBLIC "-//W3C//DTD SVG 1.1//EN" "http://www.w3.org/Graphics/SVG/1.1/DTD/svg11.dtd"><svg t="1681531220782" class="icon" viewBox="0 0 1024 1024" version="1.1" xmlns="http://www.w3.org/2000/svg" p-id="6517" xmlns:xlink="http://www.w3.org/1999/xlink" width="128" height="128"><path d="M578.077439 516.374634c42.958394-21.671579 96.395444-48.649 96.395444-121.723296 0-83.250052-71.785953-141.397381-174.600597-141.397381-74.789357 0-140.688229 42.880623-163.963329 106.702184-5.362124 14.70798-9.982352 39.135322-5.408173 59.629075 2.771113 12.368702 15.108093 20.12434 27.435862 17.407462 12.384052-2.771113 20.166295-15.052834 17.408485-27.434839-1.861394-8.345062-0.26913-22.903639 3.723811-33.865295 13.887288-38.078247 56.622602-76.493162 120.80232-76.493162 75.758428 0 128.659265 39.245839 128.659265 95.452979 0 42.643216-27.03575 58.45125-71.139224 80.71123-38.406728 19.386536-86.210477 43.514049-86.210477 103.133915l0 56.841589c0 12.691043 10.275018 22.982434 22.972201 22.982434 12.69616 0 22.970154-10.29139 22.970154-22.982434l0-56.841589C517.125229 548.601616 539.158035 536.02723 578.077439 516.374634z" fill="#5D5D5D" p-id="6518"></path><path d="M459.701378 734.025723c0 19.034519 15.426341 34.458813 34.458813 34.458813 19.028379 0 34.458813-15.424294 34.458813-34.458813 0-19.028379-15.430434-34.45779-34.458813-34.45779C475.127719 699.567933 459.701378 714.997344 459.701378 734.025723z" fill="#5D5D5D" p-id="6519"></path><path d="M946.428785 511.4863c0-241.053078-195.409528-436.46363-436.485119-436.46363C268.885472 75.000158 73.476967 270.406616 73.476967 511.4863c0 241.059218 195.410552 436.467723 436.485119 436.467723 98.950639 0 189.598172-33.67189 262.800381-89.152483 3.01159-3.402493 4.989641-7.768941 4.989641-12.666484 0-10.688433-8.66945-19.35072-19.351744-19.35072-5.564739 0-10.508331 2.204202-14.000875 5.931083l-0.273223 0c-65.50797 48.216141-146.156778 77.086679-233.725182 77.086679-218.279399 0-395.254066-177.00025-395.254066-395.280672 0-218.301911 176.974667-395.253042 395.254066-395.253042 218.302935 0 395.254066 176.951131 395.254066 395.253042 0 66.680678-15.626909 129.421628-44.794206 184.559413l0 0.324388c-0.525979 1.833765-1.12666 3.629667-1.12666 5.607718 0 10.688433 8.66638 19.352767 19.354813 19.352767 8.292873 0 15.260565-5.335519 17.992793-12.71151l0 0.1361C928.110581 651.735531 946.428785 583.771627 946.428785 511.4863z" fill="#5D5D5D" p-id="6520"></path></svg>